<svg width="96" height="96" viewBox="0 0 96 96" fill="none" xmlns="http://www.w3.org/2000/svg">
<rect width="96" height="96" fill="#00A410"/>
<path opacity="0.5" d="M18.8393 27.5893V36.9643C18.8393 37.4576 19.2388 37.8571 19.7322 37.8571H22.4107C22.904 37.8571 23.3036 37.4576 23.3036 36.9643V27.5893C23.3036 23.3979 19.9057 20 15.7143 20H6.33929C5.59989 20 5 20.5993 5 21.3393V44.1071C5 44.6004 5.39955 45 5.89286 45H8.57143C9.06473 45 9.46429 44.6004 9.46429 44.1071V24.4643H15.7143C17.4403 24.4643 18.8393 25.8633 18.8393 27.5893ZM29.1072 20H26.4286C25.9353 20 25.5357 20.3996 25.5357 20.8929V37.4107C25.5357 39.1367 24.1367 40.5357 22.4107 40.5357H16.1607V28.0357C16.1607 27.5424 15.7612 27.1429 15.2679 27.1429H12.5893C12.096 27.1429 11.6964 27.5424 11.6964 28.0357V43.6607C11.6964 44.4001 12.2963 45 13.0357 45H22.4107C26.6021 45 30 41.6021 30 37.4107V20.8929C30 20.3996 29.6005 20 29.1072 20Z" fill="white"/>
<path opacity="0.5" d="M48.4378 20H44.7939C44.5372 20 44.3028 20.1451 44.1912 20.3739L41.0997 26.6908C40.2905 28.6272 39.5874 30.7031 39.5874 30.7031H39.5148C39.5148 30.7031 38.8117 28.6272 38.0026 26.6908L34.911 20.3739C34.7994 20.1451 34.5651 20 34.3084 20H30.67C30.1622 20 29.8441 20.5413 30.0785 20.9821L34.5483 29.375H31.295C30.9267 29.375 30.6253 29.6763 30.6253 30.0446V31.8304C30.6253 32.1987 30.9267 32.5 31.295 32.5H36.2169L37.3218 34.5759V36.0714H31.295C30.9267 36.0714 30.6253 36.3728 30.6253 36.7411V38.5268C30.6253 38.8951 30.9267 39.1964 31.295 39.1964H37.3218V44.3304C37.3218 44.6987 37.6231 45 37.9914 45H41.1164C41.4847 45 41.786 44.6987 41.786 44.3304V39.1964H47.8128C48.1811 39.1964 48.4825 38.8951 48.4825 38.5268V36.7411C48.4825 36.3728 48.1811 36.0714 47.8128 36.0714H41.786V34.5759L42.891 32.5H47.8128C48.1811 32.5 48.4825 32.1987 48.4825 31.8304V30.0446C48.4825 29.6763 48.1811 29.375 47.8128 29.375H44.5595L49.0293 20.9821C49.2693 20.5413 48.9456 20 48.4378 20V20Z" fill="white"/>
<path opacity="0.5" d="M62.4672 36.0714C67.2172 36.0714 70.5387 32.7535 70.5387 27.9839C70.5387 23.2143 67.2172 20 62.4672 20H53.3512C52.9814 20 52.6815 20.2998 52.6815 20.6696V32.2004H49.7798C49.4099 32.2004 49.1101 32.5003 49.1101 32.8701V35.4018C49.1101 35.7716 49.4099 36.0714 49.7798 36.0714H52.6815V37.8571H49.7798C49.4099 37.8571 49.1101 38.157 49.1101 38.5268V40.7589C49.1101 41.1287 49.4099 41.4286 49.7798 41.4286H52.6815V44.3303C52.6815 44.7002 52.9814 45 53.3512 45H56.619C56.9888 45 57.2887 44.7002 57.2887 44.3303V41.4286H66.2976C66.6674 41.4286 66.9672 41.1287 66.9672 40.7589V38.5268C66.9672 38.157 66.6674 37.8571 66.2976 37.8571H57.2887V36.0714H62.4672ZM57.2887 23.8364H61.6815C64.2887 23.8364 65.8601 25.4608 65.8601 27.9839C65.8601 30.5415 64.2887 32.2004 61.6101 32.2004H57.2887V23.8364V23.8364Z" fill="white"/>
<path opacity="0.5" d="M91.2973 32.5H88.6177C88.2642 32.5 87.9494 32.7741 87.9494 33.1276C87.9494 38.75 83.3835 41.4286 78.5744 41.4286V32.5436L86.0857 30.8744C86.2345 30.8413 86.3675 30.7586 86.4628 30.6397C86.5582 30.5209 86.6101 30.3731 86.6101 30.2207V27.9341C86.6101 27.5057 86.2134 27.1874 85.7952 27.2804L78.5744 28.885V27.1864L86.0857 25.5172C86.2345 25.4841 86.3675 25.4014 86.4628 25.2825C86.5582 25.1637 86.6101 25.0159 86.6101 24.8635V22.577C86.6101 22.1485 86.2134 21.8303 85.7952 21.9233L78.5744 23.5278V20.6696C78.5744 20.2998 78.2746 20 77.9048 20H74.7798C74.41 20 74.1101 20.2998 74.1101 20.6696V24.5199L71.0631 25.197C70.9144 25.2301 70.7813 25.3129 70.686 25.4317C70.5907 25.5506 70.5387 25.6984 70.5387 25.8507V28.1373C70.5387 28.5657 70.9354 28.884 71.3536 28.791L74.1101 28.1785V29.8771L71.0631 30.5542C70.9144 30.5872 70.7813 30.67 70.686 30.7889C70.5907 30.9077 70.5387 31.0555 70.5387 31.2079V33.4945C70.5387 33.9229 70.9354 34.2411 71.3536 34.1482L74.1101 33.5356V44.3304C74.1101 44.7002 74.41 45 74.7798 45H79.2208C86.7036 45 91.6792 40.6566 91.9668 33.1924C91.9813 32.814 91.676 32.5 91.2973 32.5V32.5Z" fill="white"/>
<path opacity="0.5" d="M23.3385 71.304C23.2652 70.934 22.9013 70.6973 22.5336 70.7811C21.9369 70.9172 21.0033 71.0832 19.9987 71.0832C16.8311 71.0832 14.3107 69.1418 13.2207 66.3148H19.565C19.717 66.3148 19.8646 66.263 19.9833 66.168C20.1021 66.073 20.185 65.9404 20.2183 65.792L20.5739 64.2094C20.668 63.7908 20.3497 63.3929 19.9206 63.3929H12.4297C12.3622 62.5934 12.3508 61.8144 12.4373 61.0355H20.6177C20.7705 61.0355 20.9186 60.9833 21.0376 60.8875C21.1566 60.7918 21.2393 60.6582 21.2719 60.509L21.6353 58.8486C21.7267 58.431 21.4087 58.0358 20.9811 58.0358H13.2647C14.4161 55.5251 16.7631 53.8488 19.8283 53.8488C20.6367 53.8488 21.4223 53.9744 21.9405 54.0801C22.2874 54.1509 22.6295 53.9407 22.7219 53.5989L23.391 51.123C23.4927 50.7468 23.2535 50.3632 22.8706 50.2906C22.1951 50.1625 21.1066 50 19.9305 50C14.5073 50 10.1311 53.3623 8.51535 58.0358H6.66964C6.29983 58.0358 6 58.3356 6 58.7054V60.3658C6 60.7357 6.29983 61.0355 6.66964 61.0355H7.87327C7.81696 61.7948 7.80737 62.6698 7.86317 63.3929H6.66964C6.29983 63.3929 6 63.6928 6 64.0626V65.6452C6 66.015 6.29983 66.3148 6.66964 66.3148H8.35011C9.7466 71.3557 14.1063 75.0001 19.9305 75.0001C21.3982 75.0001 22.6405 74.7466 23.3402 74.5655C23.6843 74.4765 23.8997 74.1354 23.8306 73.7867L23.3385 71.304Z" fill="white"/>
<path opacity="0.5" d="M41.0309 53.5714C41.4008 53.5714 41.7006 53.2716 41.7006 52.9018V50.6696C41.7006 50.2998 41.4008 50 41.0309 50H24.5131C24.1433 50 23.8434 50.2998 23.8434 50.6696V53.1667C23.8434 53.5366 24.1433 53.8364 24.5131 53.8364H29.272C30.7959 53.8364 31.9652 54.3921 32.6744 55.3571H24.5131C24.1433 55.3571 23.8434 55.657 23.8434 56.0268V58.2589C23.8434 58.6287 24.1433 58.9286 24.5131 58.9286H33.3723C33.0254 60.9423 31.533 62.2004 29.2006 62.2004H24.5131C24.1433 62.2004 23.8434 62.5003 23.8434 62.8701V65.8283C23.8434 66.0152 23.9216 66.1936 24.0589 66.3204L33.2694 74.8224C33.3931 74.9366 33.5552 75 33.7236 75H38.3308C38.9404 75 39.233 74.2518 38.785 73.8383L30.3653 66.0662C34.6342 65.9356 37.6836 63.0865 38.0839 58.9286H41.0309C41.4008 58.9286 41.7006 58.6287 41.7006 58.2589V56.0268C41.7006 55.657 41.4008 55.3571 41.0309 55.3571H37.7558C37.5613 54.7131 37.2938 54.1157 36.9605 53.5714H41.0309Z" fill="white"/>
<path opacity="0.5" d="M51.9137 61.3965L46.6402 59.8535C46.0299 59.6777 45.6051 59.1064 45.6051 58.4717C45.6051 57.6758 46.2496 57.0312 47.0455 57.0312H50.2828C50.8785 57.0312 51.4645 57.2119 51.9527 57.5439C52.2506 57.7441 52.651 57.6953 52.9049 57.4463L54.6041 55.7861C54.9508 55.4492 54.902 54.8877 54.5162 54.5898C53.3199 53.6523 51.8258 53.1299 50.2926 53.125V50.7812C50.2926 50.3516 49.941 50 49.5113 50H47.9488C47.5192 50 47.1676 50.3516 47.1676 50.7812V53.125H47.0455C43.9352 53.125 41.4352 55.7959 41.7233 58.9648C41.9283 61.2158 43.6471 63.0469 45.8151 63.6816L50.8199 65.1465C51.4303 65.3271 51.8551 65.8935 51.8551 66.5283C51.8551 67.3242 51.2106 67.9687 50.4147 67.9687H47.1774C46.5817 67.9687 45.9957 67.7881 45.5074 67.456C45.2096 67.2558 44.8092 67.3047 44.5553 67.5537L42.8561 69.2139C42.5094 69.5508 42.5582 70.1123 42.944 70.4101C44.1402 71.3476 45.6344 71.8701 47.1676 71.875V74.2187C47.1676 74.6484 47.5192 75 47.9488 75H49.5113C49.941 75 50.2926 74.6484 50.2926 74.2187V71.8652C52.568 71.8213 54.7018 70.4687 55.4537 68.3154C56.5035 65.3076 54.7408 62.2217 51.9137 61.3965V61.3965Z" fill="white"/>
<path opacity="0.5" d="M87.2825 58.9034C87.6514 58.9034 87.9532 58.6016 87.9532 58.2328V55.9971C87.9532 55.6282 87.6514 55.3264 87.2825 55.3264H84.5998L85.6393 50.8216C85.7344 50.4024 85.4158 50 84.9854 50H82.4089C82.0903 50 81.8164 50.2236 81.7549 50.531L80.9501 55.3264H74.8077L73.7066 50.5198C73.634 50.2124 73.3657 50 73.0527 50H70.5935C70.2805 50 70.0123 50.2124 69.9396 50.5198L68.8218 55.3264H62.7464L61.7683 50.5366C61.7069 50.2236 61.4274 50 61.1088 50H58.7558C58.3255 50 58.0069 50.3968 58.1019 50.816L59.1135 55.3264H56.4308C56.0619 55.3264 55.7601 55.6282 55.7601 55.9971V58.2328C55.7601 58.6016 56.0619 58.9034 56.4308 58.9034H59.9128L60.3152 60.692H56.4308C56.0619 60.692 55.7601 60.9938 55.7601 61.3627V63.5983C55.7601 63.9672 56.0619 64.269 56.4308 64.269H61.12L63.4059 74.4747C63.473 74.7821 63.7469 75.0001 64.0599 75.0001H67.2345C67.5475 75.0001 67.8157 74.7821 67.8884 74.4803L70.2526 64.269H73.3322L75.7019 74.4803C75.7746 74.7821 76.0429 75.0001 76.3559 75.0001H79.5305C79.8435 75.0001 80.1117 74.7821 80.1844 74.4803L82.5374 64.269H87.2825C87.6514 64.269 87.9532 63.9672 87.9532 63.5983V61.3627C87.9532 60.9938 87.6514 60.692 87.2825 60.692H83.3646L83.7782 58.9034H87.2825ZM66.0328 67.2871C65.6863 68.7291 65.6528 69.9252 65.6248 69.9252H65.5633C65.5633 69.9252 65.4683 68.6956 65.1833 67.2871L64.5685 64.269H66.737L66.0328 67.2871ZM67.5698 60.692H63.8363L63.473 58.9034H67.989L67.5698 60.692ZM71.0854 60.692L71.1971 60.2113C71.3033 59.7642 71.3928 59.317 71.4654 58.9034H72.1249C72.1976 59.317 72.287 59.7642 72.3932 60.2113L72.505 60.692H71.0854ZM78.4015 67.2871C78.1164 68.6956 78.0214 69.9252 78.0214 69.9252H77.9599C77.9264 69.9252 77.8985 68.7291 77.5519 67.2871L76.8589 64.269H79.0442L78.4015 67.2871ZM79.8099 60.692H76.0429L75.6349 58.9034H80.1956L79.8099 60.692Z" fill="white"/>
</svg>
